# xmcd
#
# Track frame offsets:
#	150
#	54052
#	91440
#	133800
#	162847
#	175507
#	205582
#	220615
#	239397
#	276702
# Disc length: 4113 seconds
# Revision: 1
# Processed by: cddbd v1.5.1PL2 Copyright (c) Steve Scherf et al.
#
# Submitted via: libkcddb 0.31
#
DISCID=86100f0a
DTITLE=Guinee - Les Peuls du Wassolon: la Danse des Chasseurs
DYEAR=1997
DGENRE=World
TTITLE0=Soumangourou - Kante
TTITLE1=Donsobaw Walen - Nos Chasseurs Morts, A
TTITLE2=Wasolon Numuw - Les Grands Chasseurs Du Wassolon
TTITLE3=Wasolon Numuw - Les Forgeronds Du Wassolon
TTITLE4=Tueurs De Gibier - Sogo Fagabagaw
TTITLE5=Le Chant D'Appel - Donsow Welekan
TTITLE6=Un Air De Chasse - Donso Fasa
TTITLE7=L'Air Des Preux (1) - Donsoya Te Korobo
TTITLE8=L'Air Des Preux (2) - Donsoya Te Korobo
TTITLE9=Les Gens Du Temps Present Sont Mauvais - Bi Mogow Man Nyi
EXTD=
EXTT0=
EXTT1=
EXTT2=
EXTT3=
EXTT4=
EXTT5=
EXTT6=
EXTT7=
EXTT8=
EXTT9=
PLAYORDER=
